<svg id="Layer_1" data-name="Layer 1" xmlns="http://www.w3.org/2000/svg" viewBox="0 0 24 24" fill="#fff"><path d="M22.54,8.826a3.916,3.916,0,0,0-3.9-3.22L18.2,3.113A1.958,1.958,0,0,0,15,1.959L12.229,4.312A4.841,4.841,0,0,1,9.941,5.385l-5.8,1.022a3.322,3.322,0,0,0-2.69,3.843l.784,4.45a3.319,3.319,0,0,0,3.844,2.691l.84-.148.571,3.24a2.441,2.441,0,1,0,4.809-.848L11.727,16.4l.15-.026a4.846,4.846,0,0,1,2.518.227l3.411,1.261a1.974,1.974,0,0,0,.687.125,1.964,1.964,0,0,0,1.922-2.3l-.439-2.491A3.919,3.919,0,0,0,22.54,8.826ZM10.118,21.288a1.258,1.258,0,0,1-1.446-1.012L8.1,17.035l2.445-.431.571,3.24A1.244,1.244,0,0,1,10.118,21.288ZM18.971,16.6a.744.744,0,0,1-.749.129h0L14.811,15.47a6.051,6.051,0,0,0-3.142-.283L5.87,16.21a2.129,2.129,0,0,1-2.453-1.718l-.784-4.45A2.12,2.12,0,0,1,4.351,7.589l5.8-1.022A6.035,6.035,0,0,0,13,5.227l2.774-2.352a.759.759,0,0,1,1.238.447l.527,2.99c0,.008,0,.016,0,.025s.008.015.009.024L18.7,12.85c0,.009,0,.017,0,.025s.007.016.009.025l.527,2.988A.746.746,0,0,1,18.971,16.6Zm.793-4.611L18.849,6.8a2.708,2.708,0,0,1,.915,5.19Z"/></svg>